<?xml version="1.0"?>
<svg xmlns="http://www.w3.org/2000/svg" xmlns:xlink="http://www.w3.org/1999/xlink" xmlns:svgjs="http://svgjs.com/svgjs" version="1.1" width="512" height="512" x="0" y="0" viewBox="0 0 480.252 480.252" style="enable-background:new 0 0 512 512" xml:space="preserve" class=""><g>
<g xmlns="http://www.w3.org/2000/svg">
	<g>
		<g>
			<path d="M456.126,464.252v-296c0-4.418-3.582-8-8-8h-80c-4.418,0-8,3.582-8,8v296h-16v-184c0-4.418-3.582-8-8-8h-80     c-4.418,0-8,3.582-8,8v184h-16v-264c0-4.418-3.582-8-8-8h-80c-4.418,0-8,3.582-8,8v264h-16v-152c0-4.418-3.582-8-8-8h-80     c-4.418,0-8,3.582-8,8v152h-24v16h480v-16H456.126z M104.126,464.252h-64v-144h64V464.252z M216.126,464.252h-64v-256h64V464.252     z M328.126,464.252h-64v-176h64V464.252z M440.126,464.252h-64v-288h64V464.252z" fill="#264653" data-original="#000000" style="" class=""/>
			<path d="M50.065,217.62c6.544,4.326,14.216,6.633,22.061,6.632c22.091-0.001,39.999-17.91,39.998-40.002     c0-7.842-2.306-15.512-6.63-22.054l56.624-56.632c6.49,4.343,14.119,6.67,21.928,6.688c2.355,0.001,4.705-0.205,7.024-0.616     c7.611-1.334,14.667-4.86,20.304-10.144l47.464,36.488c-7.922,20.622,2.373,43.762,22.995,51.684     c20.622,7.922,43.762-2.373,51.684-22.995c4.646-12.094,3.147-25.689-4.023-36.481l56.608-56.608     c18.477,12.23,43.37,7.165,55.599-11.312c12.23-18.477,7.165-43.37-11.312-55.599c-18.477-12.23-43.37-7.165-55.599,11.312     c-8.886,13.425-8.886,30.862,0,44.287l-56.608,56.608c-15.855-10.48-36.895-8.357-50.336,5.08     c-0.152,0.152-0.24,0.328-0.384,0.472l-46.776-35.952c8.985-20.182-0.092-43.826-20.274-52.811     c-20.182-8.985-43.826,0.092-52.811,20.274c-5.557,12.483-4.358,26.94,3.181,38.336l-56.6,56.608     c-18.429-12.183-43.244-7.119-55.427,11.31C26.573,180.622,31.636,205.437,50.065,217.62z M408.126,16.252     c13.255,0,24,10.745,24,24s-10.745,24-24,24s-24-10.745-24-24S394.871,16.252,408.126,16.252z M279.147,135.287     c4.502-4.505,10.61-7.036,16.979-7.035c13.255-0.002,24.001,10.742,24.003,23.997c0.001,6.369-2.53,12.477-7.035,16.979     c-9.5,9.055-24.436,9.055-33.936,0C269.782,159.858,269.778,144.662,279.147,135.287z M164.468,58.487     c0.001-0.001,0.001-0.002,0.002-0.003c3.638-5.226,9.214-8.781,15.488-9.872c1.393-0.239,2.803-0.359,4.216-0.36     c4.911,0.005,9.701,1.522,13.72,4.344c10.857,7.604,13.495,22.569,5.891,33.426s-22.569,13.494-33.426,5.891     C159.502,84.309,156.864,69.344,164.468,58.487z M55.147,167.287c0.004-0.004,0.007-0.007,0.011-0.011     c9.376-9.371,24.573-9.368,33.944,0.008c9.371,9.376,9.368,24.573-0.008,33.944c-9.5,9.055-24.436,9.055-33.936,0     C45.782,191.858,45.778,176.662,55.147,167.287z" fill="#264653" data-original="#000000" style="" class=""/>
		</g>
	</g>
</g>
<g xmlns="http://www.w3.org/2000/svg">
</g>
<g xmlns="http://www.w3.org/2000/svg">
</g>
<g xmlns="http://www.w3.org/2000/svg">
</g>
<g xmlns="http://www.w3.org/2000/svg">
</g>
<g xmlns="http://www.w3.org/2000/svg">
</g>
<g xmlns="http://www.w3.org/2000/svg">
</g>
<g xmlns="http://www.w3.org/2000/svg">
</g>
<g xmlns="http://www.w3.org/2000/svg">
</g>
<g xmlns="http://www.w3.org/2000/svg">
</g>
<g xmlns="http://www.w3.org/2000/svg">
</g>
<g xmlns="http://www.w3.org/2000/svg">
</g>
<g xmlns="http://www.w3.org/2000/svg">
</g>
<g xmlns="http://www.w3.org/2000/svg">
</g>
<g xmlns="http://www.w3.org/2000/svg">
</g>
<g xmlns="http://www.w3.org/2000/svg">
</g>
</g></svg>
